<?xml version="1.0" encoding="iso-8859-1"?>
<!-- Uploaded to: SVG Repo, www.svgrepo.com, Generator: SVG Repo Mixer Tools -->
<!DOCTYPE svg PUBLIC "-//W3C//DTD SVG 1.1//EN" "http://www.w3.org/Graphics/SVG/1.1/DTD/svg11.dtd">
<svg fill="#FFFFFF" height="800px" width="800px" version="1.1" id="Capa_1" xmlns="http://www.w3.org/2000/svg" xmlns:xlink="http://www.w3.org/1999/xlink" 
	 viewBox="0 0 297 297" xml:space="preserve">
<g>
	<path d="M22.101,150.376c-3.214,16.202-1.935,33.421,4.7,49.766c8.559,21.086,24.563,37.714,45.194,47.099
		c5.225-18.879,1.665-41.724-9.887-61.32C52.331,169.336,38.013,156.696,22.101,150.376z"/>
	<path d="M222.649,178.788c11.598-19.675,28.881-34.634,48.17-41.944c-0.553-1.485-1.14-2.963-1.775-4.43
		c-8.185-18.911-22.226-34.142-40.066-43.673l-0.829,8.118c-0.169,1.652-0.917,3.191-2.113,4.343l-11.404,10.991l0.518,15.826
		c0.066,1.987-0.714,3.909-2.146,5.287l-11.403,10.99l0.516,15.828c0.065,1.986-0.714,3.907-2.145,5.286l-11.405,10.993
		l0.518,15.825c0.066,1.987-0.714,3.908-2.145,5.287l-11.405,10.992l0.515,15.834c0.065,1.985-0.714,3.906-2.145,5.284
		l-11.987,11.557l-1.601,9.493c16.712,5.605,34.441,6.06,51.298,1.4C204.833,229.179,208.763,202.346,222.649,178.788z"/>
	<path d="M122.951,229.625c-1.43-1.379-2.209-3.299-2.145-5.284l0.515-15.834l-11.405-10.992c-1.431-1.38-2.211-3.3-2.146-5.287
		l0.518-15.825L96.884,165.41c-1.431-1.38-2.209-3.3-2.145-5.286l0.517-15.828l-11.404-10.989c-1.432-1.38-2.211-3.301-2.146-5.288
		l0.518-15.826l-11.404-10.991c-1.196-1.152-1.945-2.692-2.113-4.343l-0.829-8.122c-19.976,10.654-34.551,28.049-41.96,48.062
		c19.338,7.293,36.668,22.273,48.289,41.989c13.886,23.556,17.816,50.39,11.033,73.286c16.857,4.659,34.586,4.203,51.298-1.4
		l-1.6-9.493L122.951,229.625z"/>
	<path d="M161.395,205.845c-0.065-1.985,0.714-3.906,2.145-5.285l11.405-10.992l-0.518-15.825c-0.066-1.987,0.714-3.908,2.145-5.287
		l11.405-10.993l-0.516-15.829c-0.065-1.987,0.715-3.908,2.146-5.286l11.403-10.989l-0.518-15.826
		c-0.066-1.987,0.714-3.908,2.146-5.287l4.385-4.226c-14.898-15.225-35.66-24.691-58.593-24.691
		c-22.933,0-43.695,9.466-58.593,24.691l4.384,4.225c1.431,1.379,2.211,3.3,2.146,5.287l-0.518,15.826l11.404,10.988
		c1.432,1.38,2.211,3.301,2.146,5.287l-0.517,15.829l11.405,10.993c1.431,1.38,2.21,3.3,2.145,5.287l-0.518,15.825l11.405,10.992
		c1.432,1.379,2.21,3.299,2.146,5.285l-0.515,15.834l11.407,10.997c1.083,1.042,1.801,2.406,2.051,3.889l0.024,0.142l0.024-0.143
		c0.25-1.482,0.969-2.845,2.051-3.888l11.407-10.997L161.395,205.845z M126.17,120.645c-6.147,0-11.13-4.983-11.13-11.13
		c0-6.147,4.983-11.13,11.13-11.13s11.13,4.983,11.13,11.13C137.299,115.662,132.316,120.645,126.17,120.645z M148.429,154.033
		c-6.147,0-11.13-4.983-11.13-11.13c0-6.147,4.983-11.13,11.13-11.13c6.146,0,11.129,4.983,11.129,11.13
		C159.558,149.05,154.575,154.033,148.429,154.033z M170.688,98.386c6.147,0,11.13,4.983,11.13,11.13
		c0,6.146-4.983,11.13-11.13,11.13c-6.147,0-11.13-4.983-11.13-11.13C159.558,103.368,164.541,98.386,170.688,98.386z"/>
	<path d="M34.522,96.874l-12.57-18.31c-1.617-2.354-2.219-5.197-1.697-8.005c0.522-2.807,2.107-5.244,4.461-6.861
		c2.354-1.616,5.197-2.219,8.005-1.697c2.807,0.522,5.244,2.106,6.861,4.461l11.214,16.334c5.476-3.821,11.348-7.127,17.566-9.868
		L56.126,55.104c-4.65-6.773-11.66-11.331-19.736-12.832c-8.08-1.502-16.256,0.232-23.031,4.882
		c-6.774,4.65-11.331,11.66-12.832,19.736c-1.502,8.078,0.232,16.257,4.882,23.03l16.327,23.784
		C25.442,107.634,29.725,102.003,34.522,96.874z"/>
	<path d="M234.749,185.921c-11.552,19.597-15.111,42.442-9.886,61.32c20.63-9.385,36.634-26.013,45.193-47.099
		c6.466-15.929,7.984-33.086,4.623-49.737C258.797,156.735,244.51,169.363,234.749,185.921z"/>
	<path d="M296.473,66.891c-1.501-8.077-6.058-15.086-12.832-19.736c-6.775-4.65-14.95-6.385-23.031-4.882
		c-8.077,1.501-15.086,6.058-19.737,12.832l-12.27,17.872c6.214,2.748,12.082,6.06,17.553,9.887l11.26-16.401
		c1.617-2.356,4.053-3.939,6.861-4.461c2.807-0.523,5.652,0.081,8.005,1.697c2.354,1.617,3.939,4.054,4.461,6.861
		c0.522,2.808-0.08,5.651-1.697,8.006L262.419,96.96c4.794,5.137,9.069,10.779,12.767,16.857l16.405-23.895
		C296.241,83.148,297.975,74.969,296.473,66.891z"/>
</g>
</svg>