<svg fill="currenColor" height="200px" width="200px" version="1.1" id="Capa_1" xmlns="http://www.w3.org/2000/svg" xmlns:xlink="http://www.w3.org/1999/xlink" viewBox="-29.7 -29.7 356.40 356.40" xml:space="preserve" transform="matrix(1, 0, 0, 1, 0, 0)" stroke="#000000">
  <g id="SVGRepo_bgCarrier" stroke-width="0"></g>
  <g id="SVGRepo_tracerCarrier" stroke-linecap="round" stroke-linejoin="round"></g>
  <g id="SVGRepo_iconCarrier">
    <!-- First pin (back pin) -->
    <g transform="translate(-40, 40) scale(0.9)"> <!-- Move further left and back -->
      <path d="M184.342,127.084c-14.63-19.332-10.995-56.141-6.282-66.927c5.392-12.341,5.843-16.142,5.631-21.872 c-0.019-0.523,0-1.079,0-1.715C183.691,18.983,170.225,0,148.5,0s-35.191,18.983-35.191,36.571c0,0.636,0.019,1.192,0,1.715 c-0.212,5.73,0.239,9.531,5.631,21.872c4.714,10.786,8.349,47.594-6.282,66.926c-15.867,20.965-23.581,45.59-23.581,75.284 c0,31.277,11.872,73.725,25.406,90.841c1.894,2.395,4.78,3.793,7.834,3.793h52.365c3.054,0,5.94-1.398,7.834-3.793 c13.534-17.115,25.406-59.564,25.406-90.841C207.923,172.673,200.209,148.047,184.342,127.084z M142.831,96.926h11.339 c0.262,3.579,0.708,7.2,1.35,10.807h-14.038C142.123,104.126,142.569,100.505,142.831,96.926z M133.276,39.02 c0.027-0.746,0-1.541,0-2.449c0-5.787,4.485-16.597,15.224-16.597s15.197,10.809,15.197,16.597c0,0.908-0.027,1.703,0,2.449 c0.085,2.299,0.19,3.687-3.939,13.14c-2.202,5.038-4.409,14.042-5.382,24.792h-11.751c-0.973-10.75-3.18-19.754-5.382-24.792 C133.113,42.706,133.191,41.318,133.276,39.02z M169.427,277.026h-41.854c-8.935-14.903-18.522-48.525-18.522-74.66 c0-25.18,6.389-45.863,19.533-63.23c2.695-3.561,4.937-7.406,6.796-11.429h26.239c1.858,4.023,4.101,7.869,6.796,11.43 c13.144,17.366,19.533,38.049,19.533,63.229C187.949,228.501,178.362,262.123,169.427,277.026z"></path>
    </g>

    <!-- Second pin (front pin) -->
    <g transform="translate(40, -20) scale(1.1)"> <!-- Move further right and slightly lower -->
      <path d="M184.342,127.084c-14.63-19.332-10.995-56.141-6.282-66.927c5.392-12.341,5.843-16.142,5.631-21.872 c-0.019-0.523,0-1.079,0-1.715C183.691,18.983,170.225,0,148.5,0s-35.191,18.983-35.191,36.571c0,0.636,0.019,1.192,0,1.715 c-0.212,5.73,0.239,9.531,5.631,21.872c4.714,10.786,8.349,47.594-6.282,66.926c-15.867,20.965-23.581,45.59-23.581,75.284 c0,31.277,11.872,73.725,25.406,90.841c1.894,2.395,4.78,3.793,7.834,3.793h52.365c3.054,0,5.94-1.398,7.834-3.793 c13.534-17.115,25.406-59.564,25.406-90.841C207.923,172.673,200.209,148.047,184.342,127.084z M142.831,96.926h11.339 c0.262,3.579,0.708,7.2,1.35,10.807h-14.038C142.123,104.126,142.569,100.505,142.831,96.926z M133.276,39.02 c0.027-0.746,0-1.541,0-2.449c0-5.787,4.485-16.597,15.224-16.597s15.197,10.809,15.197,16.597c0,0.908-0.027,1.703,0,2.449 c0.085,2.299,0.19,3.687-3.939,13.14c-2.202,5.038-4.409,14.042-5.382,24.792h-11.751c-0.973-10.75-3.18-19.754-5.382-24.792 C133.113,42.706,133.191,41.318,133.276,39.02z M169.427,277.026h-41.854c-8.935-14.903-18.522-48.525-18.522-74.66 c0-25.18,6.389-45.863,19.533-63.23c2.695-3.561,4.937-7.406,6.796-11.429h26.239c1.858,4.023,4.101,7.869,6.796,11.43 c13.144,17.366,19.533,38.049,19.533,63.229C187.949,228.501,178.362,262.123,169.427,277.026z"></path>
    </g>
  </g>
</svg>